<?xml version="1.0" standalone="no"?>
<!DOCTYPE svg PUBLIC "-//W3C//DTD SVG 20010904//EN"
 "http://www.w3.org/TR/2001/REC-SVG-20010904/DTD/svg10.dtd">
<svg version="1.0" xmlns="http://www.w3.org/2000/svg"
 width="1024.000000pt" height="1024.000000pt" viewBox="0 0 1024.000000 1024.000000"
 preserveAspectRatio="xMidYMid meet">
<metadata>
Created by potrace 1.14, written by Peter Selinger 2001-2017
</metadata>
<g transform="translate(0.000000,1024.000000) scale(0.100000,-0.100000)"
fill="#000000" stroke="none">
<path d="M4889 10016 c-2 -2 -56 -6 -119 -10 -63 -3 -126 -8 -140 -11 -14 -2
-52 -6 -85 -10 -154 -15 -476 -76 -660 -125 -186 -49 -471 -144 -590 -195
-218 -95 -291 -128 -411 -191 -592 -307 -1104 -720 -1534 -1239 -394 -474
-701 -1038 -889 -1630 -71 -224 -131 -473 -161 -663 -6 -37 -13 -80 -16 -97
-2 -16 -6 -41 -9 -55 -2 -14 -7 -56 -11 -95 -3 -38 -8 -78 -10 -87 -25 -139
-25 -799 1 -983 2 -16 7 -55 10 -85 42 -408 179 -922 352 -1328 95 -224 238
-502 338 -657 295 -459 529 -741 885 -1066 455 -416 1052 -777 1610 -974 41
-15 84 -31 95 -35 87 -38 512 -150 660 -175 17 -2 41 -7 55 -10 58 -11 92 -16
235 -35 226 -30 320 -35 675 -35 292 1 374 5 585 31 852 106 1703 460 2382
991 223 174 510 443 680 638 373 428 682 935 877 1440 15 39 36 90 46 115 97
243 208 703 250 1030 6 47 12 99 15 115 3 27 11 110 20 235 5 61 5 515 1 566
-2 23 -7 85 -11 137 -3 53 -7 104 -9 114 -2 10 -7 50 -11 88 -3 39 -10 88 -15
110 -5 22 -11 62 -14 88 -4 26 -11 71 -17 100 -6 29 -13 66 -15 82 -14 81 -99
400 -143 534 -54 164 -86 251 -158 421 -46 109 -223 454 -293 570 -73 121
-167 267 -180 280 -3 3 -20 28 -39 55 -163 237 -454 563 -711 796 -402 364
-924 693 -1410 889 -30 12 -64 26 -75 30 -100 41 -192 73 -435 148 -63 20
-333 86 -395 96 -16 3 -41 8 -55 11 -75 15 -165 30 -250 40 -30 4 -62 9 -71
10 -8 2 -53 6 -100 10 -46 4 -102 9 -124 12 -49 6 -600 15 -606 9z"/>
</g>
</svg>
